Coordinates
version=1
nRows=12
nColumns=42
inDegrees=yes

Units are S.I. units (second, meters, Newtons, ...)
If the header above contains a line with 'inDegrees', this indicates whether rotational values are in degrees (yes) or radians (no).

endheader
time	pelvis_tilt	pelvis_list	pelvis_rotation	pelvis_tx	pelvis_ty	pelvis_tz	hip_flexion_r	hip_adduction_r	hip_rotation_r	knee_angle_r	knee_adduction_r	knee_angle_r_beta	ankle_angle_r	subtalar_angle_r	mtp_angle_r	hip_flexion_l	hip_adduction_l	hip_rotation_l	knee_angle_l	knee_adduction_l	knee_angle_l_beta	ankle_angle_l	subtalar_angle_l	mtp_angle_l	lumbar_extension	lumbar_bending	lumbar_rotation	arm_flex_r	arm_add_r	arm_rot_r	elbow_flex_r	pro_sup_r	wrist_flex_r	wrist_dev_r	arm_flex_l	arm_add_l	arm_rot_l	elbow_flex_l	pro_sup_l	wrist_flex_l	wrist_dev_l
      0.00000000	      6.62700734	     -1.40567720	     -6.71008166	     -1.03823314	      0.83677580	     -0.34313116	     20.98120458	     -2.32879775	    -21.00655999	     58.48912125	    -16.80939479	      1.02082774	     12.61293702	     -1.07844907	     -9.39720896	      1.76998079	     -1.46192237	    -28.40810968	     24.33791139	     -3.45067352	      0.42477669	     25.62327746	     16.32737803	     -9.39720896	    -20.14827056	      0.27090728	      3.47290227	      2.71848594	    -17.63377117	     -1.95375783	     38.11152616	     90.00000001	      0.00000000	      0.00000000	     -0.35614193	     -6.89593535	    -30.66194835	     33.25887858	     90.00000001	      0.00000000	      0.00000000
      0.01000000	      6.54822346	     -1.63768684	     -6.22556268	     -1.02391797	      0.83680603	     -0.34387289	     22.14355913	     -1.82008642	    -21.67312964	     55.46150039	    -16.11788225	      0.96798579	     13.02110093	     -0.79749008	     -9.23026979	      0.31511041	     -1.74765578	    -29.27290996	     23.62459870	     -3.25969967	      0.41232703	     26.34504201	     18.32830398	     -9.23026979	    -20.02224355	      0.84232035	      2.51275432	      2.70305675	    -17.41596234	     -2.25214907	     37.84656346	     90.00000001	      0.00000000	      0.00000000	     -0.40939956	     -7.17193824	    -27.66142359	     35.47385932	     90.00000001	      0.00000000	      0.00000000
      0.02000000	      6.51028814	     -1.65374094	     -5.74483007	     -1.00942355	      0.83638044	     -0.34478458	     23.15187188	     -1.69024723	    -22.16932325	     52.33888415	    -15.12197053	      0.91348586	     13.46496404	     -0.69553278	     -9.17575885	     -1.29273999	     -1.64360751	    -29.52546297	     22.65484590	     -2.93545807	      0.39540165	     26.83684105	     19.43908640	     -9.17575885	    -19.88706101	      1.17057518	      1.38696220	      2.85360279	    -17.19549657	     -2.35541361	     37.28235670	     90.00000001	      0.00000000	      0.00000000	     -0.47782014	     -7.33072740	    -25.99743595	     38.11986094	     90.00000001	      0.00000000	      0.00000000
      0.03000000	      6.66402278	     -1.66531682	     -5.15899154	     -0.99470334	      0.83564706	     -0.34551137	     23.75524805	     -1.64797303	    -23.38542870	     48.83939893	    -14.46604183	      0.85240832	     13.97245248	      0.31833201	     -9.09237818	     -2.89528498	     -1.74639609	    -30.41120097	     22.18866602	     -2.76904485	      0.38726528	     27.41692659	     21.34794243	     -9.09237818	    -19.93280843	      1.46300069	      0.25553925	      2.89886999	    -16.97294420	     -2.54306649	     36.87654431	     90.00000001	      0.00000000	      0.00000000	     -0.66431048	     -8.00534222	    -22.67338055	     40.72210140	     90.00000001	      0.00000000	      0.00000000
      0.04000000	      6.62915774	     -1.53762891	     -4.63907944	     -0.98001814	      0.83414141	     -0.34638538	     24.52296762	     -1.86161379	    -24.26125971	     45.46310804	    -13.37075507	      0.79348092	     14.52376137	      1.11667159	     -9.03645773	     -4.28598485	     -1.60497163	    -30.99868069	     21.65499656	     -2.62578431	      0.37795099	     28.00037444	     22.78852066	     -9.03645773	    -19.76091382	      1.61956724	     -0.86835663	      2.92677655	    -16.79713771	     -2.71930609	     36.47473980	     90.00000001	      0.00000000	      0.00000000	     -0.69389646	     -8.39947251	    -21.10042857	     43.37370267	     90.00000001	      0.00000000	      0.00000000
      0.05000000	      6.62079418	     -1.46712941	     -4.07690121	     -0.96502465	      0.83212614	     -0.34706110	     25.15847888	     -2.15216943	    -26.40328416	     41.86455980	    -12.83516143	      0.73067441	     15.48294159	      4.03536565	     -8.90895946	     -5.46536298	     -1.80047663	    -32.56237212	     21.73016385	     -2.71213268	      0.37926291	     28.79162468	     25.47004051	     -8.90895946	    -19.55989871	      1.82652843	     -1.79662367	      2.70500059	    -16.67247932	     -3.10763185	     36.27887488	     90.00000001	      0.00000000	      0.00000000	     -0.42541362	     -8.92714048	    -19.22553517	     45.38397329	     90.00000001	      0.00000000	      0.00000000
      0.06000000	      6.66347962	     -1.22325355	     -3.63495416	     -0.95023643	      0.82991958	     -0.34764307	     25.65278004	     -2.60537334	    -28.01024906	     38.38676547	    -11.88848150	      0.66997545	     16.25284210	      6.47296250	     -8.80642297	     -6.82113602	     -1.64223421	    -33.50062944	     21.52599963	     -2.64548403	      0.37569957	     29.28141438	     27.09143069	     -8.80642297	    -19.44685729	      1.79838796	     -2.69761460	      2.62657376	    -16.53438674	     -3.40611044	     35.93770002	     90.00000001	      0.00000000	      0.00000000	     -0.03561975	     -9.31170251	    -18.21974719	     47.33030182	     90.00000001	      0.00000000	      0.00000000
      0.07000000	      6.43182621	     -0.73828088	     -3.34216766	     -0.93599035	      0.82711931	     -0.34830229	     26.42085512	     -3.22557566	    -28.49605013	     35.16934007	    -10.35584850	      0.61382078	     16.47160999	      7.65040196	     -8.77706996	     -7.79046761	     -0.98549994	    -33.96233575	     21.22375257	     -2.78686924	      0.37042436	     29.58665544	     27.44056235	     -8.77706996	    -19.09207362	      1.51267607	     -3.45648344	      2.50239871	    -16.48763240	     -3.55621044	     35.73372674	     90.00000001	      0.00000000	      0.00000000	      0.54890655	     -9.54997280	    -17.69093173	     49.03091756	     90.00000001	      0.00000000	      0.00000000
      0.08000000	      6.68466562	     -0.60520383	     -2.91850252	     -0.92074798	      0.82453545	     -0.34851236	     26.52086591	     -3.81057786	    -31.71503302	     31.90711077	     -9.77434204	      0.55688414	     17.86142349	     13.53334880	     -8.69224455	     -9.39794402	     -1.15290246	    -35.26918267	     21.26505739	     -2.59684108	      0.37114527	     30.17031017	     29.63440668	     -8.69224455	    -19.17850312	      1.55607838	     -4.05582317	      2.24748070	    -16.36314262	     -4.31830140	     35.48749139	     90.00000001	      0.00000000	      0.00000000	      1.07277720	    -10.03398389	    -16.39952541	     50.76772106	     90.00000001	      0.00000000	      0.00000000
      0.09000000	      6.58926689	     -0.15490129	     -2.65394680	     -0.90612368	      0.82135536	     -0.34883866	     27.05779476	     -4.63381260	    -33.68116612	     29.16948849	     -8.63394750	      0.50910362	     18.49293652	     18.07138433	     -8.61051221	    -10.48080051	     -0.74086898	    -36.05879512	     21.28881558	     -2.65168868	      0.37155993	     30.59193665	     30.63312961	     -8.61051221	    -18.96184003	      1.26827877	     -4.60035817	      2.00153517	    -16.30323449	     -4.83548859	     35.36743882	     90.00000001	      0.00000000	      0.00000000	      1.67056734	    -10.39253307	    -15.56095961	     52.39125918	     90.00000001	      0.00000000	      0.00000000
      0.10000000	      6.53555685	      0.24102278	     -2.53297275	     -0.89162236	      0.81822720	     -0.34896009	     27.44027228	     -5.20275085	    -34.93742946	     26.61738507	     -7.37041606	      0.46456101	     18.75240712	     21.69058031	     -8.55323067	    -11.67655008	     -0.32205868	    -36.61114711	     21.18850096	     -2.62438318	      0.36980911	     30.89400651	     31.13673551	     -8.55323067	    -18.84180017	      1.00252543	     -4.94285902	      1.79864555	    -16.29426303	     -5.33699063	     35.26743791	     90.00000001	      0.00000000	      0.00000000	      2.24036563	    -10.78036768	    -14.55723267	     54.01563811	     90.00000001	      0.00000000	      0.00000000
      0.11000000	      6.19682988	      0.79336053	     -2.38146525	     -0.87744698	      0.81470407	     -0.34920754	     28.12180443	     -5.89634020	    -35.26837939	     24.54641525	     -5.90438590	      0.42841577	     18.53783689	     22.94833627	     -8.54525322	    -12.34203007	      0.29283413	    -36.88217034	     21.30438728	     -2.82539985	      0.37183170	     31.09599166	     31.24727172	     -8.54525322	    -18.44193132	      0.59184115	     -5.21334895	      1.43431550	    -16.36032140	     -5.48860054	     35.23180108	     90.00000001	      0.00000000	      0.00000000	      3.02463337	    -10.94236800	    -14.18837264	     55.28846870	     90.00000001	      0.00000000	      0.00000000
